<svg xmlns="http://www.w3.org/2000/svg" viewBox="0 0 1000 1000"><path fill="#317599" d="M771.04 77.89c-107.87 44.16-117.75 48.99-117.75 57.4 0 5.05 90.41 225.83 94.2 230.03 1.68 2.1 5.68 3.78 8.83 3.78 5.05 0 225.41-88.73 230.66-92.94 6.94-5.68 5.04-11.56-40.37-123.01-25.02-60.98-46.68-113.12-48.57-115.65-2.1-3.36-5.05-4.84-9.88-4.84-3.78.03-54.04 19.37-117.12 45.23zM285.54 69.27c-6.73 3.79-10.51 11.14-10.72 20.82 0 6.52 1.47 9.67 7.36 15.56 6.94 6.94 8.2 7.36 17.03 6.31 14.3-1.47 20.82-8.83 20.82-22.71 0-9.46-.84-11.35-6.94-16.82-7.58-6.73-18.72-7.99-27.55-3.16zM123.84 115.11c-3.36 1.68-6.1 6.73-9.88 19.55-2.94 9.46-6.52 18.71-7.99 20.61-1.26 1.89-10.51 5.89-20.4 8.62-18.08 5.26-23.13 9.04-23.13 17.03 0 8.41 5.68 12.83 22.5 17.87 9.04 2.52 17.87 6.1 19.76 7.78 1.89 1.47 5.47 10.09 8.2 19.13 5.68 19.35 8.83 23.55 17.87 23.55 9.04 0 12.41-4.42 17.66-22.92 2.31-8.41 5.68-17.03 7.57-19.13 1.89-2.1 10.93-5.89 20.19-8.41 17.24-5.05 22.92-9.46 22.92-17.87 0-6.94-7.99-12.62-25.23-17.66-8.62-2.52-16.82-5.68-18.08-7.15-1.47-1.26-5.05-10.72-7.99-20.61-4.42-14.51-6.31-18.5-10.72-20.4-6.31-2.93-6.94-2.93-13.25.01zM415.69 277.86c-105.76 43.31-196.6 80.95-201.86 83.48-6.1 2.94-9.67 6.31-10.09 9.04-.63 4.42 49.41 129.73 55.51 138.99 1.68 2.73 5.26 4.83 7.78 4.83 3.57 0 361.24-144.66 400.35-161.91 16.19-7.15 16.61-5.05-14.09-80.53-15.35-37.22-28.6-68.97-29.86-70.44-1.26-1.26-5.26-2.52-8.83-2.31-3.57 0-93.14 35.53-198.91 78.85zM117.11 436.61c-24.81 10.3-46.26 18.71-47.52 18.71s-3.57-2.94-5.05-6.52c-1.47-3.57-4.84-7.78-7.36-9.46-4.42-2.94-6.31-2.52-23.34 4.42-31.11 12.82-30.69 6.73-5.04 69.81 29.44 73.17 28.81 71.91 34.27 73.17 3.15.84 12.2-1.89 25.02-7.36 22.29-9.67 24.6-12.41 19.34-24.81-1.68-4.21-2.31-8.2-1.47-8.83 1.05-.84 21.03-9.25 44.79-18.92 50.25-20.18 52.57-21.45 52.57-28.39 0-7.78-26.91-72.96-31.96-77.38-2.31-1.89-5.26-3.58-6.73-3.36-1.26-.01-22.71 8.62-47.52 18.92zM464.05 484.13l-53.82 22.08L294.79 684.3C191.13 843.89 179.14 863.24 178.51 871.86c-.63 7.99.21 10.73 4.84 16.19 6.73 7.99 16.61 10.3 26.49 6.1 6.1-2.52 13.88-13.25 50.88-70.65 24.18-37.01 44.37-67.49 45-67.49.63 0 34.48 9.04 75.49 20.4l74.43 20.19v78.01c0 86.63-.21 84.95 13.88 90.83 9.25 3.79 18.08 1.89 25.44-5.89l5.89-6.1.63-78.43.63-78.43 83.27-21.24c46.05-11.78 83.69-21.03 83.9-20.82.21.21 20.82 29.23 46.05 64.55 25.02 35.32 48.15 66.65 51.09 69.81 15.98 17.03 45 1.47 39.11-21.03-1.47-5.46-272.93-388.99-284.7-402.24-2.95-3.15-7.15-1.89-56.78 18.51zm108.29 134.99c36.59 51.3 66.23 93.57 65.81 93.78-.63.63-133.1 34.69-134.99 34.69-.63 0-1.26-50.88-1.26-112.91 0-68.34.84-112.07 1.89-111.02 1.05 1.26 31.96 44.16 68.55 95.46zm-116.7 18.29c0 104.29-.21 110.39-3.57 109.34-2.1-.63-28.81-7.78-59.51-16.19-30.7-8.2-56.77-15.56-58.24-16.4-2.31-1.26 116.49-187.14 119.85-187.35.84 0 1.47 49.84 1.47 110.6zM759.06 475.3c-7.36 3.15-13.25 12.62-13.25 21.03 0 16.19 17.24 27.54 32.17 21.24 9.46-3.79 14.09-10.72 14.09-21.24 0-10.3-4.63-17.45-13.88-21.24-8.62-3.58-10.51-3.58-19.13.21zM867.14 544.06c-3.15 2.94-6.94 10.93-9.67 20.61-2.52 8.62-5.68 16.82-7.15 18.29-1.47 1.47-9.67 4.63-18.29 7.15-33.22 9.67-34.06 26.07-2.1 35.54 8.62 2.52 17.45 6.1 19.55 7.99 1.89 1.68 6.1 11.14 9.04 20.82 5.47 17.87 8.62 21.66 18.29 21.66 7.36 0 10.93-5.26 16.19-23.13 2.53-8.62 6.31-17.24 8.2-19.13 1.89-1.89 10.51-5.68 19.13-8.2 17.87-5.26 23.13-8.83 23.13-16.19 0-9.88-3.79-13.04-21.87-18.5-9.67-2.94-18.92-6.94-20.81-9.04-1.68-1.89-5.26-10.72-7.78-19.35-6.31-22.31-15.14-28.41-25.86-18.52z"/></svg>
